HIERARCHY
ROOT mixamorig:Hips
{
	OFFSET 0.000000 201.639420 0.000000
	CHANNELS 6 Xposition Yposition Zposition Xrotation Yrotation Zrotation
	JOINT mixamorig:Spine
	{
		OFFSET 0.006200 19.524994 -2.481800
		CHANNELS 3 Xrotation Yrotation Zrotation
		JOINT mixamorig:Spine1
		{
			OFFSET -0.000900 22.835007 -2.825400
			CHANNELS 3 Xrotation Yrotation Zrotation
			JOINT mixamorig:Spine2
			{
				OFFSET -0.020600 26.552490 -3.193300
				CHANNELS 3 Xrotation Yrotation Zrotation
				JOINT mixamorig:Neck
				{
					OFFSET -0.060000 30.701813 1.352200
					CHANNELS 3 Xrotation Yrotation Zrotation
					JOINT mixamorig:Head
					{
						OFFSET -0.087200 22.547607 3.670900
						CHANNELS 3 Xrotation Yrotation Zrotation
						JOINT mixamorig:HeadTop_End
						{
							OFFSET -0.830600 40.355194 7.893500
							CHANNELS 3 Xrotation Yrotation Zrotation
							End Site
							{
								OFFSET 0.000000 30.592346 0.000000
							}
						}
						JOINT mixamorig:RightEye
						{
							OFFSET -6.302100 18.118591 16.197100
							CHANNELS 3 Xrotation Yrotation Zrotation
							End Site
							{
								OFFSET 0.000000 30.592346 0.000000
							}
						}
						JOINT mixamorig:LeftEye
						{
							OFFSET 6.741500 18.382690 16.401899
							CHANNELS 3 Xrotation Yrotation Zrotation
							End Site
							{
								OFFSET 0.000000 30.592346 0.000000
							}
						}
					}
				}
				JOINT mixamorig:LeftShoulder
				{
					OFFSET 11.924900 18.230499 1.425400
					CHANNELS 3 Xrotation Yrotation Zrotation
					JOINT mixamorig:LeftArm
					{
						OFFSET 25.435989 -0.697632 -5.229300
						CHANNELS 3 Xrotation Yrotation Zrotation
						JOINT mixamorig:LeftForeArm
						{
							OFFSET 54.684776 0.000000 0.000000
							CHANNELS 3 Xrotation Yrotation Zrotation
							JOINT mixamorig:LeftHand
							{
								OFFSET 55.098175 0.000000 0.000000
								CHANNELS 3 Xrotation Yrotation Zrotation
								JOINT mixamorig:LeftHandMiddle1
								{
									OFFSET 23.369751 0.000000 0.000000
									CHANNELS 3 Xrotation Yrotation Zrotation
									JOINT mixamorig:LeftHandMiddle2
									{
										OFFSET 6.378677 0.000000 0.000000
										CHANNELS 3 Xrotation Yrotation Zrotation
										JOINT mixamorig:LeftHandMiddle3
										{
											OFFSET 6.148331 0.000000 0.000000
											CHANNELS 3 Xrotation Yrotation Zrotation
											JOINT mixamorig:LeftHandMiddle4
											{
												OFFSET 6.582504 0.000000 0.000000
												CHANNELS 3 Xrotation Yrotation Zrotation
												End Site
												{
													OFFSET -1.168900 6.395691 1.028606
												}
											}
										}
									}
								}
								JOINT mixamorig:LeftHandThumb1
								{
									OFFSET 7.235672 -3.848206 5.434273
									CHANNELS 3 Xrotation Yrotation Zrotation
									JOINT mixamorig:LeftHandThumb2
									{
										OFFSET 6.568451 -3.792297 3.792300
										CHANNELS 3 Xrotation Yrotation Zrotation
										JOINT mixamorig:LeftHandThumb3
										{
											OFFSET 6.063080 -3.500519 3.500518
											CHANNELS 3 Xrotation Yrotation Zrotation
											JOINT mixamorig:LeftHandThumb4
											{
												OFFSET 4.793182 -2.767334 2.767349
												CHANNELS 3 Xrotation Yrotation Zrotation
												End Site
												{
													OFFSET 0.101639 6.054260 1.275483
												}
											}
										}
									}
								}
								JOINT mixamorig:LeftHandIndex1
								{
									OFFSET 23.101074 -0.309540 4.992809
									CHANNELS 3 Xrotation Yrotation Zrotation
									JOINT mixamorig:LeftHandIndex2
									{
										OFFSET 6.226883 0.000000 0.000000
										CHANNELS 3 Xrotation Yrotation Zrotation
										JOINT mixamorig:LeftHandIndex3
										{
											OFFSET 6.094330 0.000000 0.000000
											CHANNELS 3 Xrotation Yrotation Zrotation
											JOINT mixamorig:LeftHandIndex4
											{
												OFFSET 5.482605 0.000000 0.000000
												CHANNELS 3 Xrotation Yrotation Zrotation
												End Site
												{
													OFFSET -1.427902 5.233032 0.797164
												}
											}
										}
									}
								}
								JOINT mixamorig:LeftHandRing1
								{
									OFFSET 22.299240 0.021149 -3.964172
									CHANNELS 3 Xrotation Yrotation Zrotation
									JOINT mixamorig:LeftHandRing2
									{
										OFFSET 6.321869 0.000000 0.000000
										CHANNELS 3 Xrotation Yrotation Zrotation
										JOINT mixamorig:LeftHandRing3
										{
											OFFSET 5.899796 0.000000 0.000000
											CHANNELS 3 Xrotation Yrotation Zrotation
											JOINT mixamorig:LeftHandRing4
											{
												OFFSET 6.517899 0.000000 0.000000
												CHANNELS 3 Xrotation Yrotation Zrotation
												End Site
												{
													OFFSET -1.637299 6.232208 0.980890
												}
											}
										}
									}
								}
								JOINT mixamorig:LeftHandPinky1
								{
									OFFSET 20.463791 -0.302338 -8.562233
									CHANNELS 3 Xrotation Yrotation Zrotation
									JOINT mixamorig:LeftHandPinky2
									{
										OFFSET 6.908646 0.000000 0.000000
										CHANNELS 3 Xrotation Yrotation Zrotation
										JOINT mixamorig:LeftHandPinky3
										{
											OFFSET 4.622849 0.000000 0.000000
											CHANNELS 3 Xrotation Yrotation Zrotation
											JOINT mixamorig:LeftHandPinky4
											{
												OFFSET 5.216080 0.000000 0.000000
												CHANNELS 3 Xrotation Yrotation Zrotation
												End Site
												{
													OFFSET -0.606308 5.116241 0.814926
												}
											}
										}
									}
								}
							}
						}
					}
				}
				JOINT mixamorig:RightShoulder
				{
					OFFSET -12.001300 18.284088 1.348900
					CHANNELS 3 Xrotation Yrotation Zrotation
					JOINT mixamorig:RightArm
					{
						OFFSET -25.308500 -0.751312 -5.164599
						CHANNELS 3 Xrotation Yrotation Zrotation
						JOINT mixamorig:RightForeArm
						{
							OFFSET -54.684429 0.000000 0.000000
							CHANNELS 3 Xrotation Yrotation Zrotation
							JOINT mixamorig:RightHand
							{
								OFFSET -55.150291 0.000000 0.000000
								CHANNELS 3 Xrotation Yrotation Zrotation
								JOINT mixamorig:RightHandMiddle1
								{
									OFFSET -23.317566 0.000000 0.000000
									CHANNELS 3 Xrotation Yrotation Zrotation
									JOINT mixamorig:RightHandMiddle2
									{
										OFFSET -6.378403 0.000000 0.000000
										CHANNELS 3 Xrotation Yrotation Zrotation
										JOINT mixamorig:RightHandMiddle3
										{
											OFFSET -6.148193 0.000000 0.000000
											CHANNELS 3 Xrotation Yrotation Zrotation
											JOINT mixamorig:RightHandMiddle4
											{
												OFFSET -6.583389 0.000000 0.000000
												CHANNELS 3 Xrotation Yrotation Zrotation
												End Site
												{
													OFFSET 1.171692 6.395905 1.029786
												}
											}
										}
									}
								}
								JOINT mixamorig:RightHandThumb1
								{
									OFFSET -7.190521 -3.860474 5.435846
									CHANNELS 3 Xrotation Yrotation Zrotation
									JOINT mixamorig:RightHandThumb2
									{
										OFFSET -6.567429 -3.791718 3.791708
										CHANNELS 3 Xrotation Yrotation Zrotation
										JOINT mixamorig:RightHandThumb3
										{
											OFFSET -6.062469 -3.500153 3.500166
											CHANNELS 3 Xrotation Yrotation Zrotation
											JOINT mixamorig:RightHandThumb4
											{
												OFFSET -4.792618 -2.767029 2.767022
												CHANNELS 3 Xrotation Yrotation Zrotation
												End Site
												{
													OFFSET -0.100327 6.053253 1.276754
												}
											}
										}
									}
								}
								JOINT mixamorig:RightHandIndex1
								{
									OFFSET -23.048981 -0.310791 4.992554
									CHANNELS 3 Xrotation Yrotation Zrotation
									JOINT mixamorig:RightHandIndex2
									{
										OFFSET -6.227539 0.000000 0.000000
										CHANNELS 3 Xrotation Yrotation Zrotation
										JOINT mixamorig:RightHandIndex3
										{
											OFFSET -6.095047 0.000000 0.000000
											CHANNELS 3 Xrotation Yrotation Zrotation
											JOINT mixamorig:RightHandIndex4
											{
												OFFSET -5.484772 0.000000 0.000000
												CHANNELS 3 Xrotation Yrotation Zrotation
												End Site
												{
													OFFSET 1.420593 5.237305 0.797056
												}
											}
										}
									}
								}
								JOINT mixamorig:RightHandRing1
								{
									OFFSET -22.246323 0.020569 -3.963762
									CHANNELS 3 Xrotation Yrotation Zrotation
									JOINT mixamorig:RightHandRing2
									{
										OFFSET -6.322128 0.000000 0.000000
										CHANNELS 3 Xrotation Yrotation Zrotation
										JOINT mixamorig:RightHandRing3
										{
											OFFSET -5.900024 0.000000 0.000000
											CHANNELS 3 Xrotation Yrotation Zrotation
											JOINT mixamorig:RightHandRing4
											{
												OFFSET -6.518356 0.000000 0.000000
												CHANNELS 3 Xrotation Yrotation Zrotation
												End Site
												{
													OFFSET 1.636398 6.232697 0.982186
												}
											}
										}
									}
								}
								JOINT mixamorig:RightHandPinky1
								{
									OFFSET -20.411011 -0.303314 -8.561701
									CHANNELS 3 Xrotation Yrotation Zrotation
									JOINT mixamorig:RightHandPinky2
									{
										OFFSET -6.907349 0.000000 0.000000
										CHANNELS 3 Xrotation Yrotation Zrotation
										JOINT mixamorig:RightHandPinky3
										{
											OFFSET -4.623840 0.000000 0.000000
											CHANNELS 3 Xrotation Yrotation Zrotation
											JOINT mixamorig:RightHandPinky4
											{
												OFFSET -5.218353 0.000000 0.000000
												CHANNELS 3 Xrotation Yrotation Zrotation
												End Site
												{
													OFFSET 0.602097 5.118835 0.816273
												}
											}
										}
									}
								}
							}
						}
					}
				}
			}
		}
	}
	JOINT mixamorig:LeftUpLeg
	{
		OFFSET 18.168400 -13.561905 -0.039000
		CHANNELS 3 Xrotation Yrotation Zrotation
		JOINT mixamorig:LeftLeg
		{
			OFFSET 0.577358 -80.825211 -3.695000
			CHANNELS 3 Xrotation Yrotation Zrotation
			JOINT mixamorig:LeftFoot
			{
				OFFSET -0.577356 -83.370262 -6.520700
				CHANNELS 3 Xrotation Yrotation Zrotation
				JOINT mixamorig:LeftToeBase
				{
					OFFSET 0.750401 -20.798306 25.135401
					CHANNELS 3 Xrotation Yrotation Zrotation
					JOINT mixamorig:LeftToe_End
					{
						OFFSET -0.000500 0.001200 19.917799
						CHANNELS 3 Xrotation Yrotation Zrotation
						End Site
						{
							OFFSET 0.000000 19.917805 0.000000
						}
					}
				}
			}
		}
	}
	JOINT mixamorig:RightUpLeg
	{
		OFFSET -18.162500 -13.585098 -0.041000
		CHANNELS 3 Xrotation Yrotation Zrotation
		JOINT mixamorig:RightLeg
		{
			OFFSET -0.595024 -80.945297 -3.631900
			CHANNELS 3 Xrotation Yrotation Zrotation
			JOINT mixamorig:RightFoot
			{
				OFFSET 0.595024 -83.218193 -6.561200
				CHANNELS 3 Xrotation Yrotation Zrotation
				JOINT mixamorig:RightToeBase
				{
					OFFSET -0.753601 -20.807106 25.115000
					CHANNELS 3 Xrotation Yrotation Zrotation
					JOINT mixamorig:RightToe_End
					{
						OFFSET 0.000299 0.001700 19.918200
						CHANNELS 3 Xrotation Yrotation Zrotation
						End Site
						{
							OFFSET 0.000000 19.918203 0.000000
						}
					}
				}
			}
		}
	}
}
MOTION
Frames: 4
Frame Time: 0.033333
0.113331 177.608032 0.089621 16.135977 -60.426110 13.492303 0.749408 3.160273 0.085118 0.390266 4.779631 0.139294 0.300466 4.789772 0.010901 13.922951 6.016881 4.054588 -4.022262 38.305074 -3.837566 -0.000000 -0.000000 0.000001 -0.000000 -0.000000 0.000001 -0.000000 -0.000000 0.000001 0.492257 -2.611336 2.524579 -43.012662 -8.451338 -44.848743 0.000088 -76.247963 0.000088 -123.241707 5.049077 23.360072 0.768378 3.165821 -27.278912 0.770160 3.169248 -27.310967 0.194891 1.629768 -13.636830 0.000002 -0.000000 0.000000 -1.540056 3.690183 6.142351 3.939049 7.948700 0.746814 -0.579467 1.575000 2.538718 0.000001 0.000004 0.000001 0.769262 3.167541 -27.294942 0.769276 3.167540 -27.294928 0.194880 1.629753 -13.636843 -0.000000 0.000002 -0.000000 0.769261 3.167548 -27.294949 0.769278 3.167555 -27.294923 0.194891 1.629760 -13.636836 -0.000000 -0.000001 0.000001 2.624128 6.776383 -26.945366 0.778313 -0.893296 -27.750343 0.194890 1.629762 -13.636843 -0.000003 0.000001 0.000002 0.296989 -6.266948 8.077657 -90.625996 62.560469 114.980975 0.000286 82.107774 -0.000291 -61.724932 -20.437289 -41.098553 2.495432 -5.339292 50.075474 2.495452 -5.339313 50.075484 0.652724 -2.946068 24.979552 0.000001 0.000001 -0.000002 -1.849252 -3.581797 -6.586134 4.637181 -8.634099 -0.225418 -1.273757 0.137305 -2.094869 0.000000 0.000000 -0.000001 2.495439 -5.339292 50.075477 2.495440 -5.339281 50.075481 0.652732 -2.946068 24.979559 0.000002 0.000001 0.000000 2.495443 -5.339287 50.075474 2.495438 -5.339308 50.075488 0.652708 -2.946063 24.979561 -0.000000 0.000001 -0.000001 2.495433 -5.339284 50.075474 2.495448 -5.339309 50.075491 0.652727 -2.946065 24.979554 0.000000 -0.000000 -0.000001 -48.782857 7.232468 29.169382 32.391817 5.226855 5.776781 17.346416 -1.362443 -15.329615 -8.471677 0.000006 0.000011 -0.000000 -0.000001 -0.000000 -30.043881 -15.554993 -28.675357 37.571628 -4.445771 -8.302971 -9.029195 -7.680150 23.418354 -2.579523 -0.000030 -0.000003 0.000000 0.000000 -0.000000 
-0.067924 177.512878 0.134031 17.516239 -59.807868 14.183666 0.280452 3.278227 0.402769 0.106002 4.933756 0.228174 -0.013421 4.941640 0.062180 13.421445 6.183220 4.301978 -5.746442 38.849245 -2.519328 0.000001 0.000000 0.000001 0.000001 0.000000 0.000001 0.000001 0.000000 0.000001 0.567543 -3.336478 3.476179 -42.435026 -7.529256 -44.775537 0.000033 -73.520675 0.000044 -122.673353 6.528092 19.947649 0.768383 3.165828 -27.278908 0.770160 3.169248 -27.310976 0.194886 1.629771 -13.636825 0.000004 0.000000 0.000001 -1.540050 3.690187 6.142350 3.939054 7.948700 0.746810 -0.579467 1.574998 2.538717 0.000002 0.000000 0.000000 0.769267 3.167543 -27.294945 0.769275 3.167537 -27.294930 0.194875 1.629755 -13.636843 -0.000002 0.000001 0.000002 0.769263 3.167552 -27.294949 0.769278 3.167562 -27.294932 0.194891 1.629756 -13.636836 0.000001 0.000001 -0.000002 2.624132 6.776383 -26.945366 0.778305 -0.893296 -27.750338 0.194893 1.629758 -13.636843 0.000001 -0.000002 -0.000002 0.290228 -6.526065 8.462006 -93.609744 62.579723 117.090725 -0.000118 78.798485 0.000146 -61.879690 -19.212163 -39.836392 3.947901 -6.269919 64.362546 3.947883 -6.269922 64.362539 1.064570 -3.702539 32.073124 0.000001 -0.000001 -0.000000 -1.849254 -3.581796 -6.586137 4.637179 -8.634099 -0.225410 -1.273757 0.137303 -2.094872 0.000000 -0.000000 0.000002 3.947898 -6.269939 64.362553 3.947897 -6.269887 64.362546 1.064585 -3.702540 32.073127 0.000001 0.000000 0.000001 3.947906 -6.269937 64.362539 3.947895 -6.269912 64.362539 1.064557 -3.702532 32.073110 -0.000001 0.000001 -0.000001 3.947904 -6.269918 64.362539 3.947887 -6.269908 64.362539 1.064563 -3.702543 32.073120 -0.000001 -0.000000 0.000001 -49.943091 6.453865 29.099249 32.888177 4.981293 5.936545 17.148491 -1.311543 -15.048990 -8.285674 0.000011 -0.000002 0.000000 0.000002 0.000000 -29.984746 -15.700308 -28.043510 37.279890 -3.835123 -8.082334 -9.259687 -8.599171 23.624436 -2.646096 -0.000021 -0.000004 -0.000000 -0.000001 -0.000001 
0.813347 177.277115 0.071182 13.303531 -57.784930 11.173662 1.201112 2.819456 -0.128853 0.370593 4.270076 -0.049248 0.273330 4.266975 -0.148793 11.710830 5.724953 6.431326 -0.271550 38.146432 -4.117393 -0.000000 -0.000000 -0.000001 -0.000000 -0.000000 -0.000001 -0.000000 -0.000000 -0.000001 0.454170 -2.457348 5.341087 -43.097421 -8.371800 -51.880857 0.000681 -84.560809 0.000662 -119.373907 2.612672 24.391570 0.768379 3.165824 -27.278912 0.770160 3.169249 -27.310972 0.194888 1.629767 -13.636828 -0.000000 -0.000001 0.000000 -1.540048 3.690189 6.142354 3.939050 7.948702 0.746809 -0.579468 1.575001 2.538719 0.000001 -0.000000 0.000003 0.769265 3.167540 -27.294944 0.769280 3.167534 -27.294928 0.194884 1.629759 -13.636842 -0.000001 0.000001 -0.000000 0.769264 3.167548 -27.294947 0.769277 3.167557 -27.294923 0.194893 1.629758 -13.636838 -0.000000 -0.000001 0.000002 2.624132 6.776381 -26.945368 0.778311 -0.893297 -27.750340 0.194894 1.629760 -13.636842 -0.000004 0.000000 0.000002 0.345349 -7.652754 11.895182 -78.180367 68.985546 106.151966 0.001725 93.535172 -0.001733 -59.120751 -19.241271 -45.349219 2.565396 -5.396829 50.823263 2.565415 -5.396821 50.823267 0.671943 -2.986946 25.351173 0.000001 -0.000000 0.000001 -1.849254 -3.581798 -6.586135 4.637180 -8.634098 -0.225411 -1.273759 0.137303 -2.094868 0.000000 0.000000 0.000001 2.565403 -5.396817 50.823246 2.565393 -5.396793 50.823263 0.671957 -2.986948 25.351178 0.000001 -0.000000 0.000001 2.565403 -5.396832 50.823263 2.565397 -5.396835 50.823277 0.671981 -2.986935 25.351186 -0.000000 0.000000 0.000001 2.565399 -5.396817 50.823257 2.565402 -5.396820 50.823274 0.671961 -2.986941 25.351181 0.000000 0.000001 -0.000001 -49.475110 7.710125 29.153515 31.986811 3.709991 4.271246 20.594825 -1.823925 -15.750087 -8.823740 0.000004 -0.000006 0.000000 0.000001 0.000000 -29.450970 -17.734935 -30.975236 38.082037 -3.700089 -7.290180 -9.704152 -7.847717 23.378769 -2.655719 -0.000016 -0.000001 0.000000 -0.000000 -0.000000 
1.337152 177.562256 -0.099706 10.045721 -58.707129 9.251386 2.374085 2.743799 -0.737169 1.051596 4.207412 -0.261574 0.984693 4.211358 -0.327521 12.648426 5.565950 5.376543 1.539890 37.295674 -6.367620 0.000001 -0.000000 0.000000 0.000001 -0.000000 0.000000 0.000001 -0.000000 0.000000 0.227877 -0.440021 3.911476 -45.322854 -12.585957 -50.578572 -0.000335 -85.912326 -0.000266 -122.789316 3.212075 29.556981 0.768383 3.165827 -27.278913 0.770155 3.169250 -27.310976 0.194887 1.629770 -13.636833 -0.000001 0.000002 0.000004 -1.540052 3.690186 6.142354 3.939051 7.948700 0.746811 -0.579471 1.574999 2.538720 0.000003 -0.000001 0.000002 0.769265 3.167544 -27.294945 0.769278 3.167542 -27.294930 0.194878 1.629757 -13.636838 0.000001 0.000001 -0.000002 0.769266 3.167552 -27.294952 0.769278 3.167551 -27.294927 0.194896 1.629756 -13.636838 -0.000001 0.000002 0.000002 2.624130 6.776387 -26.945366 0.778307 -0.893298 -27.750347 0.194898 1.629765 -13.636847 0.000004 0.000001 0.000002 0.330202 -7.342008 10.985221 -80.865458 68.420908 109.197526 -0.000213 97.328632 0.000155 -59.070229 -21.469252 -46.931992 2.686724 -5.492993 52.101667 2.686720 -5.493009 52.101653 0.705431 -3.056525 25.986372 0.000000 0.000000 0.000001 -1.849252 -3.581798 -6.586132 4.637180 -8.634100 -0.225409 -1.273757 0.137302 -2.094866 0.000001 0.000001 -0.000000 2.686728 -5.492992 52.101663 2.686706 -5.492983 52.101663 0.705433 -3.056532 25.986380 0.000001 0.000000 0.000000 2.686725 -5.493001 52.101670 2.686724 -5.493000 52.101663 0.705417 -3.056519 25.986378 -0.000001 -0.000000 0.000000 2.686720 -5.492997 52.101660 2.686726 -5.492997 52.101660 0.705431 -3.056526 25.986373 0.000000 0.000001 0.000001 -47.742309 8.544685 28.694752 32.055731 4.730686 4.439788 21.813215 -1.821383 -14.670258 -11.600725 0.000001 0.000007 0.000000 -0.000001 -0.000000 -29.985828 -16.588106 -31.982818 39.785312 -9.378724 -7.964826 -7.760127 -3.612111 23.326423 -3.495659 0.000053 0.000000 -0.000000 0.000000 0.000000 
